<svg width="1602" height="497" viewBox="0 0 1602 497" fill="none" xmlns="http://www.w3.org/2000/svg">
<g opacity="0.06">
<g opacity="0.5">
<path opacity="0.5" d="M1 31.4795C1 31.4795 409.692 280.208 764.418 331.517" stroke="url(#paint0_linear_57_2242)" stroke-width="0.25" stroke-miterlimit="10"/>
<path opacity="0.5" d="M1 52.9248C1 52.9248 404.573 297.645 764.418 331.517" stroke="url(#paint1_linear_57_2242)" stroke-width="0.25" stroke-miterlimit="10"/>
<path opacity="0.5" d="M1 74.3701C1 74.3701 399.667 315.081 764.418 331.516" stroke="url(#paint2_linear_57_2242)" stroke-width="0.25" stroke-miterlimit="10"/>
<path opacity="0.5" d="M1 95.8164C1 95.8164 394.761 332.319 764.418 331.517" stroke="url(#paint3_linear_57_2242)" stroke-width="0.25" stroke-miterlimit="10"/>
<path opacity="0.5" d="M1 117.262C1 117.262 389.855 349.756 764.418 331.517" stroke="url(#paint4_linear_57_2242)" stroke-width="0.25" stroke-miterlimit="10"/>
<path opacity="0.5" d="M1 138.707C1 138.707 384.949 366.992 764.418 331.517" stroke="url(#paint5_linear_57_2242)" stroke-width="0.25" stroke-miterlimit="10"/>
<path opacity="0.5" d="M1 160.152C1 160.152 380.043 384.429 764.418 331.516" stroke="url(#paint6_linear_57_2242)" stroke-width="0.25" stroke-miterlimit="10"/>
<path opacity="0.5" d="M1 181.599C1 181.599 374.923 401.666 764.418 331.517" stroke="url(#paint7_linear_57_2242)" stroke-width="0.25" stroke-miterlimit="10"/>
<path opacity="0.5" d="M1 203.244C1 203.244 370.017 419.303 764.418 331.717" stroke="url(#paint8_linear_57_2242)" stroke-width="0.25" stroke-miterlimit="10"/>
<path opacity="0.5" d="M1 224.689C1 224.689 365.111 436.539 764.418 331.717" stroke="url(#paint9_linear_57_2242)" stroke-width="0.25" stroke-miterlimit="10"/>
<path opacity="0.5" d="M1 246.136C1 246.136 360.205 453.977 764.418 331.718" stroke="url(#paint10_linear_57_2242)" stroke-width="0.25" stroke-miterlimit="10"/>
<path opacity="0.5" d="M1 267.581C1 267.581 355.299 471.414 764.418 331.717" stroke="url(#paint11_linear_57_2242)" stroke-width="0.25" stroke-miterlimit="10"/>
<path opacity="0.5" d="M1 289.026C1 289.026 350.18 488.65 764.418 331.717" stroke="url(#paint12_linear_57_2242)" stroke-width="0.25" stroke-miterlimit="10"/>
<path opacity="0.5" d="M1 310.473C1 310.473 345.274 506.088 764.418 331.718" stroke="url(#paint13_linear_57_2242)" stroke-width="0.25" stroke-miterlimit="10"/>
<path opacity="0.5" d="M1 331.917C1 331.917 340.368 523.324 764.418 331.717" stroke="url(#paint14_linear_57_2242)" stroke-width="0.25" stroke-miterlimit="10"/>
<path opacity="0.5" d="M1 353.364C1 353.364 335.462 540.762 764.418 331.518" stroke="url(#paint15_linear_57_2242)" stroke-width="0.25" stroke-miterlimit="10"/>
<path opacity="0.5" d="M1 374.81C1 374.81 330.556 557.999 764.418 331.518" stroke="url(#paint16_linear_57_2242)" stroke-width="0.25" stroke-miterlimit="10"/>
</g>
<g opacity="0.3">
<path opacity="0.3" d="M989.029 214.468C989.029 214.468 1182.71 -124.853 1600.79 52.1228" stroke="url(#paint17_linear_57_2242)" stroke-width="0.25" stroke-miterlimit="10"/>
<path opacity="0.3" d="M989.029 214.468C989.029 214.468 1039.58 135.901 1142.82 79.381C1244.35 23.4622 1398.15 -12.6144 1600.79 63.7478" stroke="url(#paint18_linear_57_2242)" stroke-width="0.25" stroke-miterlimit="10"/>
<path opacity="0.3" d="M989.029 214.467C989.029 214.467 1040.86 143.717 1145.17 93.2098C1247.55 43.5043 1402.84 10.2336 1600.79 75.372" stroke="url(#paint19_linear_57_2242)" stroke-width="0.25" stroke-miterlimit="10"/>
<path opacity="0.3" d="M989.029 214.467C989.029 214.467 1042.14 151.534 1147.3 107.039C1250.54 63.3464 1407.32 33.0821 1600.57 86.7962" stroke="url(#paint20_linear_57_2242)" stroke-width="0.25" stroke-miterlimit="10"/>
<path opacity="0.3" d="M989.029 214.467C989.029 214.467 1043.42 159.15 1149.65 121.069C1253.74 83.389 1412.23 56.1311 1600.79 98.6214" stroke="url(#paint21_linear_57_2242)" stroke-width="0.25" stroke-miterlimit="10"/>
<path opacity="0.3" d="M989.029 214.468C989.029 214.468 1044.7 166.967 1151.99 134.899C1256.94 103.232 1416.92 78.9802 1600.79 110.046" stroke="url(#paint22_linear_57_2242)" stroke-width="0.25" stroke-miterlimit="10"/>
<path opacity="0.3" d="M989.029 214.468C989.029 214.468 1045.98 174.984 1154.13 148.728C1259.93 123.274 1421.61 101.828 1600.79 121.671" stroke="url(#paint23_linear_57_2242)" stroke-width="0.25" stroke-miterlimit="10"/>
<path opacity="0.3" d="M989.029 214.468C989.029 214.468 1047.26 182.6 1156.47 162.758C1263.13 143.317 1426.3 124.878 1600.79 133.496" stroke="url(#paint24_linear_57_2242)" stroke-width="0.25" stroke-miterlimit="10"/>
<path opacity="0.3" d="M989.029 214.468C989.029 214.468 1048.54 190.417 1158.61 176.587C1265.9 163.159 1430.78 147.726 1600.57 144.92" stroke="url(#paint25_linear_57_2242)" stroke-width="0.25" stroke-miterlimit="10"/>
<path opacity="0.3" d="M989.029 214.468C989.029 214.468 1049.82 198.233 1160.95 190.617C1269.1 183.201 1435.69 170.775 1600.79 156.745" stroke="url(#paint26_linear_57_2242)" stroke-width="0.25" stroke-miterlimit="10"/>
<path opacity="0.3" d="M989.029 214.467C989.029 214.467 1051.1 205.849 1163.3 204.446C1272.3 203.043 1440.38 193.623 1600.79 168.169" stroke="url(#paint27_linear_57_2242)" stroke-width="0.25" stroke-miterlimit="10"/>
<path opacity="0.3" d="M989.029 214.468C989.029 214.468 1052.38 213.465 1165.43 218.276C1275.28 222.685 1444.86 216.472 1600.79 179.794" stroke="url(#paint28_linear_57_2242)" stroke-width="0.25" stroke-miterlimit="10"/>
<path opacity="0.3" d="M989.029 214.468C989.029 214.468 1053.66 221.282 1167.78 232.306C1278.48 242.728 1449.77 239.521 1600.79 191.419" stroke="url(#paint29_linear_57_2242)" stroke-width="0.25" stroke-miterlimit="10"/>
<path opacity="0.3" d="M989.029 214.468C989.029 214.468 1054.94 228.899 1169.91 246.135C1281.47 262.57 1454.25 262.37 1600.57 203.044" stroke="url(#paint30_linear_57_2242)" stroke-width="0.25" stroke-miterlimit="10"/>
<path opacity="0.3" d="M989.029 214.468C989.029 214.468 1056.22 236.715 1172.26 259.964C1284.67 282.412 1459.15 285.218 1600.79 214.468" stroke="url(#paint31_linear_57_2242)" stroke-width="0.25" stroke-miterlimit="10"/>
<path opacity="0.3" d="M989.029 214.468C989.029 214.468 1057.5 244.532 1174.6 273.994C1287.87 302.455 1463.85 308.267 1600.79 226.293" stroke="url(#paint32_linear_57_2242)" stroke-width="0.25" stroke-miterlimit="10"/>
<path opacity="0.3" d="M989.029 214.468C989.029 214.468 1058.78 252.148 1176.74 287.824C1290.86 322.297 1468.32 331.116 1600.79 237.717" stroke="url(#paint33_linear_57_2242)" stroke-width="0.25" stroke-miterlimit="10"/>
</g>
<g opacity="0.8">
<path opacity="0.8" d="M1 187.611C1 187.611 191.481 89.8031 610.199 290.429C833.956 397.657 942.741 276.8 1050.25 277.001C1212.36 277.402 1301.31 432.732 1600.79 256.357" stroke="url(#paint34_linear_57_2242)" stroke-width="0.5" stroke-miterlimit="10"/>
<path opacity="0.8" d="M1 205.048C1 205.048 203.426 81.7864 618.304 278.003C850.38 386.834 949.567 288.826 1061.98 288.225C1225.58 287.824 1320.08 425.116 1600.79 259.764" stroke="url(#paint35_linear_57_2242)" stroke-width="0.5" stroke-miterlimit="10"/>
<path opacity="0.8" d="M1 222.485C1 222.485 214.518 74.9714 626.197 265.576C866.165 376.813 956.179 300.45 1073.5 299.248C1238.6 297.644 1338.64 417.499 1600.57 263.171" stroke="url(#paint36_linear_57_2242)" stroke-width="0.5" stroke-miterlimit="10"/>
<path opacity="0.8" d="M1 239.722C1 239.722 226.25 67.155 634.302 253.15C882.589 366.19 963.005 312.276 1085.23 310.271C1251.82 307.666 1357.41 409.683 1600.57 266.378" stroke="url(#paint37_linear_57_2242)" stroke-width="0.5" stroke-miterlimit="10"/>
<path opacity="0.8" d="M1 257.159C1 257.159 237.768 59.3387 642.408 240.724C899.014 355.568 969.618 324.101 1096.96 321.295C1265.05 317.687 1376.18 402.067 1600.79 269.786" stroke="url(#paint38_linear_57_2242)" stroke-width="0.5" stroke-miterlimit="10"/>
<path opacity="0.8" d="M1 274.596C1 274.596 249.5 51.5224 650.513 228.298C915.225 344.946 976.444 335.926 1108.69 332.519C1278.27 327.909 1394.95 394.451 1600.79 273.193" stroke="url(#paint39_linear_57_2242)" stroke-width="0.5" stroke-miterlimit="10"/>
<path opacity="0.8" d="M1 291.832C1 291.832 261.445 43.3041 658.619 215.67C931.649 334.122 983.269 347.751 1120.42 343.341C1291.49 337.93 1413.51 386.433 1600.79 276.199" stroke="url(#paint40_linear_57_2242)" stroke-width="0.5" stroke-miterlimit="10"/>
<path opacity="0.8" d="M1 309.27C1 309.27 273.177 35.2875 666.725 203.244C948.287 323.5 990.095 359.576 1132.16 354.365C1304.72 348.152 1432.28 378.817 1600.79 279.607" stroke="url(#paint41_linear_57_2242)" stroke-width="0.5" stroke-miterlimit="10"/>
<path opacity="0.8" d="M1 326.706C1 326.706 285.122 27.07 674.617 190.818C964.498 312.677 996.707 371.602 1143.67 365.589C1317.94 358.374 1450.83 371.201 1600.79 283.014" stroke="url(#paint42_linear_57_2242)" stroke-width="0.5" stroke-miterlimit="10"/>
<path opacity="0.8" d="M1 343.943C1 343.943 297.067 18.6522 682.723 178.191C980.923 301.653 1003.53 383.227 1155.41 376.412C1331.17 368.395 1469.6 363.385 1600.79 286.221" stroke="url(#paint43_linear_57_2242)" stroke-width="0.5" stroke-miterlimit="10"/>
<path opacity="0.8" d="M1 361.38C1 361.38 309.012 10.2342 690.828 165.765C997.347 290.63 1010.15 395.252 1167.14 387.435C1344.39 378.617 1488.38 355.568 1600.79 289.427" stroke="url(#paint44_linear_57_2242)" stroke-width="0.5" stroke-miterlimit="10"/>
<path opacity="0.8" d="M1 378.817C1 378.817 320.957 1.816 698.934 153.338C1014.2 279.606 1017.18 407.277 1178.87 398.659C1357.62 389.038 1507.15 348.152 1600.79 293.035" stroke="url(#paint45_linear_57_2242)" stroke-width="0.5" stroke-miterlimit="10"/>
<path opacity="0.8" d="M1 396.054C1 396.054 332.902 -6.8014 707.039 140.712C1030.62 268.383 1024.01 419.103 1190.6 409.483C1370.84 399.061 1525.92 340.136 1600.79 296.042" stroke="url(#paint46_linear_57_2242)" stroke-width="0.5" stroke-miterlimit="10"/>
<path opacity="0.8" d="M1 413.491C1 413.491 345.061 -15.4201 714.932 128.285C1047.05 257.159 1030.62 431.329 1202.12 420.506C1383.86 409.683 1544.47 332.519 1600.79 299.449" stroke="url(#paint47_linear_57_2242)" stroke-width="0.5" stroke-miterlimit="10"/>
<path opacity="0.8" d="M1 430.928C1 430.928 357.006 -23.8383 723.037 115.858C1063.69 245.935 1037.45 443.154 1213.85 431.529C1397.08 419.904 1563.25 324.702 1600.79 302.655" stroke="url(#paint48_linear_57_2242)" stroke-width="0.5" stroke-miterlimit="10"/>
<path opacity="0.8" d="M1 448.164C1 448.164 369.378 -33.2584 731.143 103.231C1080.75 233.909 1044.06 454.979 1225.58 442.552C1410.31 430.126 1582.02 317.086 1600.79 306.062" stroke="url(#paint49_linear_57_2242)" stroke-width="0.5" stroke-miterlimit="10"/>
<path opacity="0.8" d="M1 465.601C1 465.601 381.323 -41.4758 739.248 90.8052C1097.17 223.086 1051.1 467.004 1237.32 453.576C1423.53 440.147 1600.79 309.269 1600.79 309.269" stroke="url(#paint50_linear_57_2242)" stroke-width="0.5" stroke-miterlimit="10"/>
</g>
<g opacity="0.8">
<path opacity="0.8" d="M1 191.418C1 191.418 191.481 93.6098 610.199 294.236C833.956 401.464 942.741 280.607 1050.25 280.807C1212.36 281.208 1301.31 436.538 1600.79 260.164" stroke="url(#paint51_linear_57_2242)" stroke-width="0.25" stroke-miterlimit="10"/>
<path opacity="0.8" d="M1 208.655C1 208.655 203.426 85.3928 618.304 281.61C850.38 390.441 949.567 292.433 1061.98 291.831C1225.58 291.431 1320.08 428.722 1600.79 263.371" stroke="url(#paint52_linear_57_2242)" stroke-width="0.25" stroke-miterlimit="10"/>
<path opacity="0.8" d="M1 226.092C1 226.092 214.518 78.5788 626.197 269.184C866.165 380.42 956.179 304.058 1073.5 302.855C1238.6 301.252 1338.64 421.106 1600.57 266.779" stroke="url(#paint53_linear_57_2242)" stroke-width="0.25" stroke-miterlimit="10"/>
<path opacity="0.8" d="M1 243.529C1 243.529 226.25 70.9626 634.302 256.958C882.589 369.998 963.005 316.083 1085.23 314.079C1251.82 311.474 1357.41 413.49 1600.57 270.186" stroke="url(#paint54_linear_57_2242)" stroke-width="0.25" stroke-miterlimit="10"/>
<path opacity="0.8" d="M1 260.765C1 260.765 237.768 62.9451 642.408 244.33C899.014 359.174 969.618 327.708 1096.96 324.902C1265.05 321.294 1376.18 405.673 1600.79 273.392" stroke="url(#paint55_linear_57_2242)" stroke-width="0.25" stroke-miterlimit="10"/>
<path opacity="0.8" d="M1 278.203C1 278.203 249.5 55.1288 650.513 231.904C915.225 348.552 976.444 339.533 1108.69 336.126C1278.27 331.516 1394.95 398.057 1600.79 276.8" stroke="url(#paint56_linear_57_2242)" stroke-width="0.25" stroke-miterlimit="10"/>
<path opacity="0.8" d="M1 295.64C1 295.64 261.445 47.1117 658.619 219.478C931.649 337.929 983.269 351.558 1120.42 347.149C1291.49 341.738 1413.51 390.241 1600.79 280.006" stroke="url(#paint57_linear_57_2242)" stroke-width="0.25" stroke-miterlimit="10"/>
<path opacity="0.8" d="M1 312.876C1 312.876 273.177 38.894 666.725 206.851C948.287 327.106 990.095 363.183 1132.16 357.972C1304.72 351.759 1432.28 382.424 1600.79 283.213" stroke="url(#paint58_linear_57_2242)" stroke-width="0.25" stroke-miterlimit="10"/>
<path opacity="0.8" d="M1 330.313C1 330.313 285.122 30.6764 674.617 194.424C964.498 316.283 996.707 375.208 1143.67 369.196C1317.94 361.98 1450.83 374.807 1600.79 286.62" stroke="url(#paint59_linear_57_2242)" stroke-width="0.25" stroke-miterlimit="10"/>
<path opacity="0.8" d="M1 347.751C1 347.751 297.067 22.4598 682.723 181.999C980.923 305.461 1003.53 387.034 1155.41 380.22C1331.17 372.203 1469.6 367.192 1600.79 290.028" stroke="url(#paint60_linear_57_2242)" stroke-width="0.25" stroke-miterlimit="10"/>
<path opacity="0.8" d="M1 364.987C1 364.987 309.012 13.8406 690.828 169.371C997.347 294.236 1010.15 398.859 1167.14 391.042C1344.39 382.223 1488.38 359.174 1600.79 293.034" stroke="url(#paint61_linear_57_2242)" stroke-width="0.25" stroke-miterlimit="10"/>
<path opacity="0.8" d="M1 382.423C1 382.423 320.957 5.42243 698.934 156.944C1014.2 283.213 1017.18 410.884 1178.87 402.265C1357.62 392.645 1507.15 351.758 1600.79 296.641" stroke="url(#paint62_linear_57_2242)" stroke-width="0.25" stroke-miterlimit="10"/>
<path opacity="0.8" d="M1 399.861C1 399.861 332.902 -2.99476 707.039 144.519C1030.62 272.19 1024.01 422.91 1190.6 413.29C1370.84 402.867 1525.92 343.942 1600.79 299.849" stroke="url(#paint63_linear_57_2242)" stroke-width="0.25" stroke-miterlimit="10"/>
<path opacity="0.8" d="M1 417.097C1 417.097 345.061 -11.8136 714.932 131.892C1047.05 260.765 1030.62 434.935 1202.12 424.112C1383.86 413.289 1544.47 336.125 1600.79 303.055" stroke="url(#paint64_linear_57_2242)" stroke-width="0.25" stroke-miterlimit="10"/>
<path opacity="0.8" d="M1 434.534C1 434.534 357.006 -20.2319 723.037 119.465C1063.69 249.541 1037.45 446.961 1213.85 435.135C1397.08 423.511 1563.25 328.308 1600.79 306.262" stroke="url(#paint65_linear_57_2242)" stroke-width="0.25" stroke-miterlimit="10"/>
<path opacity="0.8" d="M1 451.971C1 451.971 369.378 -29.4518 731.143 107.038C1080.75 237.716 1044.27 458.785 1225.58 446.359C1410.31 433.933 1582.02 320.892 1600.79 309.869" stroke="url(#paint66_linear_57_2242)" stroke-width="0.25" stroke-miterlimit="10"/>
<path opacity="0.8" d="M1 469.208C1 469.208 381.323 -37.8693 739.248 94.4117C1097.17 226.693 1051.1 470.611 1237.32 457.182C1423.53 443.754 1600.79 312.876 1600.79 312.876" stroke="url(#paint67_linear_57_2242)" stroke-width="0.25" stroke-miterlimit="10"/>
</g>
<path d="M1 128.886C1 128.886 209.186 407.477 503.546 412.889C794.281 418.1 1182.92 -64.1243 1600.79 182.399" stroke="url(#paint68_linear_57_2242)" stroke-miterlimit="10"/>
<path d="M1 496.667C1 496.667 270.191 50.1182 590.788 36.4892C935.062 22.0586 1042.99 353.763 1236.25 410.083C1454.46 473.618 1600.79 407.477 1600.79 407.477" stroke="url(#paint69_linear_57_2242)" stroke-miterlimit="10"/>
<path d="M1 90.8052C1 90.8052 145.834 28.6732 307.306 62.1443C454.913 92.609 778.923 372.203 937.622 422.911C1116.37 480.032 1401.13 430.928 1600.79 91.6069" stroke="url(#paint70_linear_57_2242)" stroke-miterlimit="10"/>
<path d="M1 381.222C1 381.222 181.029 469.409 403.933 433.533C595.054 402.868 837.582 141.513 1060.91 141.713C1275.71 141.913 1415.21 227.094 1600.79 457.584" stroke="url(#paint71_linear_57_2242)" stroke-miterlimit="10"/>
<path d="M1600.79 140.911C1600.79 140.911 1218.76 -136.879 740.315 128.685C365.965 336.527 287.255 395.652 1 235.713" stroke="url(#paint72_linear_57_2242)" stroke-miterlimit="10"/>
<path d="M1600.79 147.325C1600.79 147.325 1218.76 -130.465 740.315 135.099C365.965 343.141 287.255 402.267 1 242.127" stroke="url(#paint73_linear_57_2242)" stroke-width="0.25" stroke-miterlimit="10"/>
</g>
<defs>
<linearGradient id="paint0_linear_57_2242" x1="0.758539" y1="181.567" x2="764.437" y2="181.567" gradientUnits="userSpaceOnUse">
<stop stop-color="#87888A"/>
<stop offset="0.4974" stop-color="#E5E5E5"/>
<stop offset="1" stop-color="#7D7E80"/>
</linearGradient>
<linearGradient id="paint1_linear_57_2242" x1="0.758965" y1="192.291" x2="764.423" y2="192.291" gradientUnits="userSpaceOnUse">
<stop stop-color="#87888A"/>
<stop offset="0.4974" stop-color="#E5E5E5"/>
<stop offset="1" stop-color="#7D7E80"/>
</linearGradient>
<linearGradient id="paint2_linear_57_2242" x1="0.759392" y1="203.015" x2="764.409" y2="203.015" gradientUnits="userSpaceOnUse">
<stop stop-color="#87888A"/>
<stop offset="0.4974" stop-color="#E5E5E5"/>
<stop offset="1" stop-color="#7D7E80"/>
</linearGradient>
<linearGradient id="paint3_linear_57_2242" x1="0.760032" y1="213.741" x2="764.397" y2="213.741" gradientUnits="userSpaceOnUse">
<stop stop-color="#87888A"/>
<stop offset="0.4974" stop-color="#E5E5E5"/>
<stop offset="1" stop-color="#7D7E80"/>
</linearGradient>
<linearGradient id="paint4_linear_57_2242" x1="0.760459" y1="224.974" x2="764.41" y2="224.974" gradientUnits="userSpaceOnUse">
<stop stop-color="#87888A"/>
<stop offset="0.4974" stop-color="#E5E5E5"/>
<stop offset="1" stop-color="#7D7E80"/>
</linearGradient>
<linearGradient id="paint5_linear_57_2242" x1="0.760885" y1="237.072" x2="764.423" y2="237.072" gradientUnits="userSpaceOnUse">
<stop stop-color="#87888A"/>
<stop offset="0.4974" stop-color="#E5E5E5"/>
<stop offset="1" stop-color="#7D7E80"/>
</linearGradient>
<linearGradient id="paint6_linear_57_2242" x1="0.761525" y1="249.957" x2="764.435" y2="249.957" gradientUnits="userSpaceOnUse">
<stop stop-color="#87888A"/>
<stop offset="0.4974" stop-color="#E5E5E5"/>
<stop offset="1" stop-color="#7D7E80"/>
</linearGradient>
<linearGradient id="paint7_linear_57_2242" x1="0.761952" y1="263.562" x2="764.447" y2="263.562" gradientUnits="userSpaceOnUse">
<stop stop-color="#87888A"/>
<stop offset="0.4974" stop-color="#E5E5E5"/>
<stop offset="1" stop-color="#7D7E80"/>
</linearGradient>
<linearGradient id="paint8_linear_57_2242" x1="0.762592" y1="277.822" x2="764.458" y2="277.822" gradientUnits="userSpaceOnUse">
<stop stop-color="#87888A"/>
<stop offset="0.4974" stop-color="#E5E5E5"/>
<stop offset="1" stop-color="#7D7E80"/>
</linearGradient>
<linearGradient id="paint9_linear_57_2242" x1="0.763232" y1="292.682" x2="764.468" y2="292.682" gradientUnits="userSpaceOnUse">
<stop stop-color="#87888A"/>
<stop offset="0.4974" stop-color="#E5E5E5"/>
<stop offset="1" stop-color="#7D7E80"/>
</linearGradient>
<linearGradient id="paint10_linear_57_2242" x1="0.763871" y1="308.093" x2="764.478" y2="308.093" gradientUnits="userSpaceOnUse">
<stop stop-color="#87888A"/>
<stop offset="0.4974" stop-color="#E5E5E5"/>
<stop offset="1" stop-color="#7D7E80"/>
</linearGradient>
<linearGradient id="paint11_linear_57_2242" x1="0.764298" y1="324.004" x2="764.487" y2="324.004" gradientUnits="userSpaceOnUse">
<stop stop-color="#87888A"/>
<stop offset="0.4974" stop-color="#E5E5E5"/>
<stop offset="1" stop-color="#7D7E80"/>
</linearGradient>
<linearGradient id="paint12_linear_57_2242" x1="0.764938" y1="340.376" x2="764.496" y2="340.376" gradientUnits="userSpaceOnUse">
<stop stop-color="#87888A"/>
<stop offset="0.4974" stop-color="#E5E5E5"/>
<stop offset="1" stop-color="#7D7E80"/>
</linearGradient>
<linearGradient id="paint13_linear_57_2242" x1="0.765578" y1="357.171" x2="764.504" y2="357.171" gradientUnits="userSpaceOnUse">
<stop stop-color="#87888A"/>
<stop offset="0.4974" stop-color="#E5E5E5"/>
<stop offset="1" stop-color="#7D7E80"/>
</linearGradient>
<linearGradient id="paint14_linear_57_2242" x1="0.766431" y1="374.197" x2="764.512" y2="374.197" gradientUnits="userSpaceOnUse">
<stop stop-color="#87888A"/>
<stop offset="0.4974" stop-color="#E5E5E5"/>
<stop offset="1" stop-color="#7D7E80"/>
</linearGradient>
<linearGradient id="paint15_linear_57_2242" x1="0.767071" y1="381.013" x2="764.519" y2="381.013" gradientUnits="userSpaceOnUse">
<stop stop-color="#87888A"/>
<stop offset="0.4974" stop-color="#E5E5E5"/>
<stop offset="1" stop-color="#7D7E80"/>
</linearGradient>
<linearGradient id="paint16_linear_57_2242" x1="0.767711" y1="388.156" x2="764.526" y2="388.156" gradientUnits="userSpaceOnUse">
<stop stop-color="#87888A"/>
<stop offset="0.4974" stop-color="#E5E5E5"/>
<stop offset="1" stop-color="#7D7E80"/>
</linearGradient>
<linearGradient id="paint17_linear_57_2242" x1="988.745" y1="107.753" x2="1600.8" y2="107.753" gradientUnits="userSpaceOnUse">
<stop stop-color="#87888A"/>
<stop offset="0.4974" stop-color="#E5E5E5"/>
<stop offset="1" stop-color="#7D7E80"/>
</linearGradient>
<linearGradient id="paint18_linear_57_2242" x1="988.752" y1="117.308" x2="1600.79" y2="117.308" gradientUnits="userSpaceOnUse">
<stop stop-color="#87888A"/>
<stop offset="0.4974" stop-color="#E5E5E5"/>
<stop offset="1" stop-color="#7D7E80"/>
</linearGradient>
<linearGradient id="paint19_linear_57_2242" x1="988.76" y1="126.839" x2="1600.78" y2="126.839" gradientUnits="userSpaceOnUse">
<stop stop-color="#87888A"/>
<stop offset="0.4974" stop-color="#E5E5E5"/>
<stop offset="1" stop-color="#7D7E80"/>
</linearGradient>
<linearGradient id="paint20_linear_57_2242" x1="988.771" y1="136.337" x2="1600.77" y2="136.337" gradientUnits="userSpaceOnUse">
<stop stop-color="#87888A"/>
<stop offset="0.4974" stop-color="#E5E5E5"/>
<stop offset="1" stop-color="#7D7E80"/>
</linearGradient>
<linearGradient id="paint21_linear_57_2242" x1="988.784" y1="145.778" x2="1600.75" y2="145.778" gradientUnits="userSpaceOnUse">
<stop stop-color="#87888A"/>
<stop offset="0.4974" stop-color="#E5E5E5"/>
<stop offset="1" stop-color="#7D7E80"/>
</linearGradient>
<linearGradient id="paint22_linear_57_2242" x1="988.801" y1="155.122" x2="1600.74" y2="155.122" gradientUnits="userSpaceOnUse">
<stop stop-color="#87888A"/>
<stop offset="0.4974" stop-color="#E5E5E5"/>
<stop offset="1" stop-color="#7D7E80"/>
</linearGradient>
<linearGradient id="paint23_linear_57_2242" x1="988.821" y1="164.282" x2="1600.72" y2="164.282" gradientUnits="userSpaceOnUse">
<stop stop-color="#87888A"/>
<stop offset="0.4974" stop-color="#E5E5E5"/>
<stop offset="1" stop-color="#7D7E80"/>
</linearGradient>
<linearGradient id="paint24_linear_57_2242" x1="988.846" y1="172.92" x2="1600.7" y2="172.92" gradientUnits="userSpaceOnUse">
<stop stop-color="#87888A"/>
<stop offset="0.4974" stop-color="#E5E5E5"/>
<stop offset="1" stop-color="#7D7E80"/>
</linearGradient>
<linearGradient id="paint25_linear_57_2242" x1="988.875" y1="179.806" x2="1600.7" y2="179.806" gradientUnits="userSpaceOnUse">
<stop stop-color="#87888A"/>
<stop offset="0.4974" stop-color="#E5E5E5"/>
<stop offset="1" stop-color="#7D7E80"/>
</linearGradient>
<linearGradient id="paint26_linear_57_2242" x1="988.907" y1="185.615" x2="1600.71" y2="185.615" gradientUnits="userSpaceOnUse">
<stop stop-color="#87888A"/>
<stop offset="0.4974" stop-color="#E5E5E5"/>
<stop offset="1" stop-color="#7D7E80"/>
</linearGradient>
<linearGradient id="paint27_linear_57_2242" x1="988.941" y1="191.423" x2="1600.74" y2="191.423" gradientUnits="userSpaceOnUse">
<stop stop-color="#87888A"/>
<stop offset="0.4974" stop-color="#E5E5E5"/>
<stop offset="1" stop-color="#7D7E80"/>
</linearGradient>
<linearGradient id="paint28_linear_57_2242" x1="988.975" y1="199.774" x2="1600.76" y2="199.774" gradientUnits="userSpaceOnUse">
<stop stop-color="#87888A"/>
<stop offset="0.4974" stop-color="#E5E5E5"/>
<stop offset="1" stop-color="#7D7E80"/>
</linearGradient>
<linearGradient id="paint29_linear_57_2242" x1="988.951" y1="214.349" x2="1600.78" y2="214.349" gradientUnits="userSpaceOnUse">
<stop stop-color="#87888A"/>
<stop offset="0.4974" stop-color="#E5E5E5"/>
<stop offset="1" stop-color="#7D7E80"/>
</linearGradient>
<linearGradient id="paint30_linear_57_2242" x1="988.919" y1="229.337" x2="1600.8" y2="229.337" gradientUnits="userSpaceOnUse">
<stop stop-color="#87888A"/>
<stop offset="0.4974" stop-color="#E5E5E5"/>
<stop offset="1" stop-color="#7D7E80"/>
</linearGradient>
<linearGradient id="paint31_linear_57_2242" x1="988.891" y1="244.419" x2="1600.82" y2="244.419" gradientUnits="userSpaceOnUse">
<stop stop-color="#87888A"/>
<stop offset="0.4974" stop-color="#E5E5E5"/>
<stop offset="1" stop-color="#7D7E80"/>
</linearGradient>
<linearGradient id="paint32_linear_57_2242" x1="988.867" y1="253.869" x2="1600.83" y2="253.869" gradientUnits="userSpaceOnUse">
<stop stop-color="#87888A"/>
<stop offset="0.4974" stop-color="#E5E5E5"/>
<stop offset="1" stop-color="#7D7E80"/>
</linearGradient>
<linearGradient id="paint33_linear_57_2242" x1="988.847" y1="263.371" x2="1600.85" y2="263.371" gradientUnits="userSpaceOnUse">
<stop stop-color="#87888A"/>
<stop offset="0.4974" stop-color="#E5E5E5"/>
<stop offset="1" stop-color="#7D7E80"/>
</linearGradient>
<linearGradient id="paint34_linear_57_2242" x1="0.648047" y1="252.299" x2="1600.97" y2="252.299" gradientUnits="userSpaceOnUse">
<stop stop-color="#87888A"/>
<stop offset="0.4974" stop-color="#E5E5E5"/>
<stop offset="1" stop-color="#7D7E80"/>
</linearGradient>
<linearGradient id="paint35_linear_57_2242" x1="0.613491" y1="254.069" x2="1600.97" y2="254.069" gradientUnits="userSpaceOnUse">
<stop stop-color="#87888A"/>
<stop offset="0.4974" stop-color="#E5E5E5"/>
<stop offset="1" stop-color="#7D7E80"/>
</linearGradient>
<linearGradient id="paint36_linear_57_2242" x1="0.587682" y1="255.005" x2="1600.97" y2="255.005" gradientUnits="userSpaceOnUse">
<stop stop-color="#87888A"/>
<stop offset="0.4974" stop-color="#E5E5E5"/>
<stop offset="1" stop-color="#7D7E80"/>
</linearGradient>
<linearGradient id="paint37_linear_57_2242" x1="0.566564" y1="254.957" x2="1600.97" y2="254.957" gradientUnits="userSpaceOnUse">
<stop stop-color="#87888A"/>
<stop offset="0.4974" stop-color="#E5E5E5"/>
<stop offset="1" stop-color="#7D7E80"/>
</linearGradient>
<linearGradient id="paint38_linear_57_2242" x1="0.549287" y1="254.293" x2="1600.97" y2="254.293" gradientUnits="userSpaceOnUse">
<stop stop-color="#87888A"/>
<stop offset="0.4974" stop-color="#E5E5E5"/>
<stop offset="1" stop-color="#7D7E80"/>
</linearGradient>
<linearGradient id="paint39_linear_57_2242" x1="0.535209" y1="253.254" x2="1600.97" y2="253.254" gradientUnits="userSpaceOnUse">
<stop stop-color="#87888A"/>
<stop offset="0.4974" stop-color="#E5E5E5"/>
<stop offset="1" stop-color="#7D7E80"/>
</linearGradient>
<linearGradient id="paint40_linear_57_2242" x1="0.523477" y1="252.139" x2="1600.97" y2="252.139" gradientUnits="userSpaceOnUse">
<stop stop-color="#87888A"/>
<stop offset="0.4974" stop-color="#E5E5E5"/>
<stop offset="1" stop-color="#7D7E80"/>
</linearGradient>
<linearGradient id="paint41_linear_57_2242" x1="0.513665" y1="251.763" x2="1600.97" y2="251.763" gradientUnits="userSpaceOnUse">
<stop stop-color="#87888A"/>
<stop offset="0.4974" stop-color="#E5E5E5"/>
<stop offset="1" stop-color="#7D7E80"/>
</linearGradient>
<linearGradient id="paint42_linear_57_2242" x1="0.505346" y1="253.782" x2="1600.97" y2="253.782" gradientUnits="userSpaceOnUse">
<stop stop-color="#87888A"/>
<stop offset="0.4974" stop-color="#E5E5E5"/>
<stop offset="1" stop-color="#7D7E80"/>
</linearGradient>
<linearGradient id="paint43_linear_57_2242" x1="0.498307" y1="255.488" x2="1600.97" y2="255.488" gradientUnits="userSpaceOnUse">
<stop stop-color="#87888A"/>
<stop offset="0.4974" stop-color="#E5E5E5"/>
<stop offset="1" stop-color="#7D7E80"/>
</linearGradient>
<linearGradient id="paint44_linear_57_2242" x1="0.492121" y1="256.918" x2="1600.97" y2="256.918" gradientUnits="userSpaceOnUse">
<stop stop-color="#87888A"/>
<stop offset="0.4974" stop-color="#E5E5E5"/>
<stop offset="1" stop-color="#7D7E80"/>
</linearGradient>
<linearGradient id="paint45_linear_57_2242" x1="0.486788" y1="258.108" x2="1600.97" y2="258.108" gradientUnits="userSpaceOnUse">
<stop stop-color="#87888A"/>
<stop offset="0.4974" stop-color="#E5E5E5"/>
<stop offset="1" stop-color="#7D7E80"/>
</linearGradient>
<linearGradient id="paint46_linear_57_2242" x1="0.481882" y1="259.093" x2="1600.97" y2="259.093" gradientUnits="userSpaceOnUse">
<stop stop-color="#87888A"/>
<stop offset="0.4974" stop-color="#E5E5E5"/>
<stop offset="1" stop-color="#7D7E80"/>
</linearGradient>
<linearGradient id="paint47_linear_57_2242" x1="0.47783" y1="259.909" x2="1600.97" y2="259.909" gradientUnits="userSpaceOnUse">
<stop stop-color="#87888A"/>
<stop offset="0.4974" stop-color="#E5E5E5"/>
<stop offset="1" stop-color="#7D7E80"/>
</linearGradient>
<linearGradient id="paint48_linear_57_2242" x1="0.47399" y1="260.551" x2="1600.97" y2="260.551" gradientUnits="userSpaceOnUse">
<stop stop-color="#87888A"/>
<stop offset="0.4974" stop-color="#E5E5E5"/>
<stop offset="1" stop-color="#7D7E80"/>
</linearGradient>
<linearGradient id="paint49_linear_57_2242" x1="0.470577" y1="263.457" x2="1600.97" y2="263.457" gradientUnits="userSpaceOnUse">
<stop stop-color="#87888A"/>
<stop offset="0.4974" stop-color="#E5E5E5"/>
<stop offset="1" stop-color="#7D7E80"/>
</linearGradient>
<linearGradient id="paint50_linear_57_2242" x1="0.467591" y1="267.083" x2="1601.02" y2="267.083" gradientUnits="userSpaceOnUse">
<stop stop-color="#87888A"/>
<stop offset="0.4974" stop-color="#E5E5E5"/>
<stop offset="1" stop-color="#7D7E80"/>
</linearGradient>
<linearGradient id="paint51_linear_57_2242" x1="0.775817" y1="255.984" x2="1600.83" y2="255.984" gradientUnits="userSpaceOnUse">
<stop stop-color="#87888A"/>
<stop offset="0.4974" stop-color="#E5E5E5"/>
<stop offset="1" stop-color="#7D7E80"/>
</linearGradient>
<linearGradient id="paint52_linear_57_2242" x1="0.758539" y1="257.755" x2="1600.83" y2="257.755" gradientUnits="userSpaceOnUse">
<stop stop-color="#87888A"/>
<stop offset="0.4974" stop-color="#E5E5E5"/>
<stop offset="1" stop-color="#7D7E80"/>
</linearGradient>
<linearGradient id="paint53_linear_57_2242" x1="0.745741" y1="258.691" x2="1600.83" y2="258.691" gradientUnits="userSpaceOnUse">
<stop stop-color="#87888A"/>
<stop offset="0.4974" stop-color="#E5E5E5"/>
<stop offset="1" stop-color="#7D7E80"/>
</linearGradient>
<linearGradient id="paint54_linear_57_2242" x1="0.735075" y1="258.643" x2="1600.83" y2="258.643" gradientUnits="userSpaceOnUse">
<stop stop-color="#87888A"/>
<stop offset="0.4974" stop-color="#E5E5E5"/>
<stop offset="1" stop-color="#7D7E80"/>
</linearGradient>
<linearGradient id="paint55_linear_57_2242" x1="0.726543" y1="257.978" x2="1600.83" y2="257.978" gradientUnits="userSpaceOnUse">
<stop stop-color="#87888A"/>
<stop offset="0.4974" stop-color="#E5E5E5"/>
<stop offset="1" stop-color="#7D7E80"/>
</linearGradient>
<linearGradient id="paint56_linear_57_2242" x1="0.719504" y1="256.939" x2="1600.83" y2="256.939" gradientUnits="userSpaceOnUse">
<stop stop-color="#87888A"/>
<stop offset="0.4974" stop-color="#E5E5E5"/>
<stop offset="1" stop-color="#7D7E80"/>
</linearGradient>
<linearGradient id="paint57_linear_57_2242" x1="0.713531" y1="255.825" x2="1600.83" y2="255.825" gradientUnits="userSpaceOnUse">
<stop stop-color="#87888A"/>
<stop offset="0.4974" stop-color="#E5E5E5"/>
<stop offset="1" stop-color="#7D7E80"/>
</linearGradient>
<linearGradient id="paint58_linear_57_2242" x1="0.708625" y1="255.448" x2="1600.83" y2="255.448" gradientUnits="userSpaceOnUse">
<stop stop-color="#87888A"/>
<stop offset="0.4974" stop-color="#E5E5E5"/>
<stop offset="1" stop-color="#7D7E80"/>
</linearGradient>
<linearGradient id="paint59_linear_57_2242" x1="0.704573" y1="257.467" x2="1600.83" y2="257.467" gradientUnits="userSpaceOnUse">
<stop stop-color="#87888A"/>
<stop offset="0.4974" stop-color="#E5E5E5"/>
<stop offset="1" stop-color="#7D7E80"/>
</linearGradient>
<linearGradient id="paint60_linear_57_2242" x1="0.700947" y1="259.174" x2="1600.83" y2="259.174" gradientUnits="userSpaceOnUse">
<stop stop-color="#87888A"/>
<stop offset="0.4974" stop-color="#E5E5E5"/>
<stop offset="1" stop-color="#7D7E80"/>
</linearGradient>
<linearGradient id="paint61_linear_57_2242" x1="0.697747" y1="260.603" x2="1600.83" y2="260.603" gradientUnits="userSpaceOnUse">
<stop stop-color="#87888A"/>
<stop offset="0.4974" stop-color="#E5E5E5"/>
<stop offset="1" stop-color="#7D7E80"/>
</linearGradient>
<linearGradient id="paint62_linear_57_2242" x1="0.695187" y1="261.794" x2="1600.83" y2="261.794" gradientUnits="userSpaceOnUse">
<stop stop-color="#87888A"/>
<stop offset="0.4974" stop-color="#E5E5E5"/>
<stop offset="1" stop-color="#7D7E80"/>
</linearGradient>
<linearGradient id="paint63_linear_57_2242" x1="0.692841" y1="262.778" x2="1600.83" y2="262.778" gradientUnits="userSpaceOnUse">
<stop stop-color="#87888A"/>
<stop offset="0.4974" stop-color="#E5E5E5"/>
<stop offset="1" stop-color="#7D7E80"/>
</linearGradient>
<linearGradient id="paint64_linear_57_2242" x1="0.690708" y1="263.595" x2="1600.83" y2="263.595" gradientUnits="userSpaceOnUse">
<stop stop-color="#87888A"/>
<stop offset="0.4974" stop-color="#E5E5E5"/>
<stop offset="1" stop-color="#7D7E80"/>
</linearGradient>
<linearGradient id="paint65_linear_57_2242" x1="0.688788" y1="264.237" x2="1600.83" y2="264.237" gradientUnits="userSpaceOnUse">
<stop stop-color="#87888A"/>
<stop offset="0.4974" stop-color="#E5E5E5"/>
<stop offset="1" stop-color="#7D7E80"/>
</linearGradient>
<linearGradient id="paint66_linear_57_2242" x1="0.687082" y1="267.194" x2="1600.83" y2="267.194" gradientUnits="userSpaceOnUse">
<stop stop-color="#87888A"/>
<stop offset="0.4974" stop-color="#E5E5E5"/>
<stop offset="1" stop-color="#7D7E80"/>
</linearGradient>
<linearGradient id="paint67_linear_57_2242" x1="0.685589" y1="270.821" x2="1600.86" y2="270.821" gradientUnits="userSpaceOnUse">
<stop stop-color="#87888A"/>
<stop offset="0.4974" stop-color="#E5E5E5"/>
<stop offset="1" stop-color="#7D7E80"/>
</linearGradient>
<linearGradient id="paint68_linear_57_2242" x1="0.0307425" y1="262.491" x2="1601.26" y2="262.491" gradientUnits="userSpaceOnUse">
<stop stop-color="#87888A"/>
<stop offset="0.4974" stop-color="#E5E5E5"/>
<stop offset="1" stop-color="#7D7E80"/>
</linearGradient>
<linearGradient id="paint69_linear_57_2242" x1="-0.0242902" y1="266.125" x2="1601.15" y2="266.125" gradientUnits="userSpaceOnUse">
<stop stop-color="#87888A"/>
<stop offset="0.4974" stop-color="#E5E5E5"/>
<stop offset="1" stop-color="#7D7E80"/>
</linearGradient>
<linearGradient id="paint70_linear_57_2242" x1="0.460765" y1="247.707" x2="1601.62" y2="247.707" gradientUnits="userSpaceOnUse">
<stop stop-color="#87888A"/>
<stop offset="0.4974" stop-color="#E5E5E5"/>
<stop offset="1" stop-color="#7D7E80"/>
</linearGradient>
<linearGradient id="paint71_linear_57_2242" x1="0.411065" y1="299.501" x2="1601.54" y2="299.501" gradientUnits="userSpaceOnUse">
<stop stop-color="#87888A"/>
<stop offset="0.4974" stop-color="#E5E5E5"/>
<stop offset="1" stop-color="#7D7E80"/>
</linearGradient>
<linearGradient id="paint72_linear_57_2242" x1="0.358165" y1="170.379" x2="1601.34" y2="170.379" gradientUnits="userSpaceOnUse">
<stop stop-color="#87888A"/>
<stop offset="0.4974" stop-color="#E5E5E5"/>
<stop offset="1" stop-color="#7D7E80"/>
</linearGradient>
<linearGradient id="paint73_linear_57_2242" x1="0.767284" y1="176.872" x2="1600.85" y2="176.872" gradientUnits="userSpaceOnUse">
<stop stop-color="#87888A"/>
<stop offset="0.4974" stop-color="#E5E5E5"/>
<stop offset="1" stop-color="#7D7E80"/>
</linearGradient>
</defs>
</svg>
