<svg width="570" height="64" viewBox="0 0 570 64" fill="none" xmlns="http://www.w3.org/2000/svg">
<path d="M0 0.938462L15.9487 0.868272L17.9456 3.65518L19.9425 0.814171L562.115 0L563.822 18L569.645 63.0615H553.702H546.152L543.656 59.9129L541.16 63.0615H531.112L6.58884 64L2.82221 27L0 0.938462Z" fill="#D9D9D9" fill-opacity="0.05"/>
<path d="M18.3546 3.9427L20.2024 1.31378L561.66 0.500683L563.325 18.0472L563.325 18.0557L563.326 18.0641L569.076 62.5615H553.702H546.394L544.048 59.6023L543.656 59.108L543.264 59.6023L540.918 62.5615H531.112L7.04044 63.4992L3.31965 26.9494L3.31931 26.9462L0.556803 1.43602L15.6927 1.3694L17.5391 3.9464L17.9495 4.51911L18.3546 3.9427Z" stroke="#8320F7" stroke-opacity="0.25"/>
</svg>
