<svg width="24" height="24" viewBox="0 0 24 24" fill="none" xmlns="http://www.w3.org/2000/svg">
<path fill-rule="evenodd" clip-rule="evenodd" d="M13.9999 13.5858L14.0099 13.5958L15.9441 15.5301M13.9999 13.5858L7.76143 7.34723L3.41406 3" fill="#D9D9D9"/>
<path d="M18.2975 15.0551L16.7627 13.5203C16.9194 13.0295 16.9995 12.5167 16.9995 11.9999C16.9995 11.3432 16.8702 10.6931 16.6189 10.0864C16.4956 9.78877 16.3441 9.50445 16.167 9.2372C15.8618 8.77687 15.8516 8.14773 16.2421 7.75721C16.6327 7.36668 17.2726 7.36309 17.6035 7.80523C17.9525 8.27151 18.2428 8.78057 18.4667 9.32107C18.8184 10.1703 18.9995 11.0806 18.9995 11.9999C18.9995 12.0573 18.9988 12.1147 18.9974 12.1721C18.9762 13.0326 18.7965 13.8824 18.4667 14.6786C18.4634 14.6866 18.4601 14.6945 18.4567 14.7025C18.4069 14.8216 18.3538 14.9392 18.2975 15.0551Z" fill="#D9D9D9"/>
<path d="M21.2289 17.986L19.7389 16.496C19.9388 16.152 20.1159 15.7942 20.2689 15.425C20.7186 14.3392 20.9501 13.1754 20.9501 12.0001C20.9501 10.8247 20.7186 9.66094 20.2688 8.57508C19.9501 7.80562 19.5262 7.08598 19.0105 6.43622C18.6586 5.99279 18.6533 5.34701 19.0536 4.9467C19.4539 4.5464 20.1071 4.5436 20.4684 4.97941C21.1694 5.82496 21.7411 6.77225 22.1629 7.79055C22.7157 9.12513 23.0002 10.5555 23.0002 12.0001C23.0002 13.4446 22.7157 14.875 22.1629 16.2096C21.9057 16.8304 21.5928 17.4249 21.2289 17.986Z" fill="#D9D9D9"/>
<path d="M14.0001 10.7568L9.28467 6.04139L12.3493 3.41455C12.998 2.85854 14.0001 3.31945 14.0001 4.17381V10.7568Z" fill="#D9D9D9"/>
<path d="M3.41419 2.99993C3.02367 2.6094 2.3905 2.6094 1.99998 2.99993C1.60945 3.39045 1.60945 4.02362 1.99998 4.41414L5.58576 7.99993H3C1.89543 7.99993 1 8.89536 1 9.99988V14C1 14.069 1.0035 14.1372 1.01033 14.2044C1.11275 15.213 1.96447 16 3 16H7L12.3492 20.585C12.9979 21.141 14 20.6801 14 19.8257V16.4142L19.5858 22C19.9763 22.3905 20.6095 22.3905 21 22C21.3905 21.6094 21.3905 20.9763 21 20.5857L18.75 18.3356L15.9442 15.53L14.01 13.5958L14 13.5858L7.76156 7.34716L3.41419 2.99993Z" fill="#D9D9D9"/>
</svg>
