<svg width="24" height="24" viewBox="0 0 24 24" fill="none" xmlns="http://www.w3.org/2000/svg">
<path d="M3 15.9995C1.89543 15.9995 1 15.1041 1 13.9995V9.99958C1 8.89501 1.89543 7.99958 3 7.99958H7L12.3492 3.41455C12.9979 2.85854 14 3.31945 14 4.1738V19.8253C14 20.6797 12.9979 21.1406 12.3492 20.5846L7 15.9995H3Z" fill="white"/>
<path d="M17.604 7.80523C17.2731 7.36309 16.6332 7.36668 16.2426 7.75721C15.8521 8.14773 15.8623 8.77687 16.1675 9.2372C16.3446 9.50445 16.4961 9.78877 16.6194 10.0864C16.8707 10.6931 17 11.3432 17 11.9998C17 12.6565 16.8707 13.3066 16.6194 13.9133C16.4961 14.2109 16.3446 14.4952 16.1675 14.7625C15.8623 15.2228 15.8521 15.852 16.2426 16.2425C16.6332 16.633 17.2731 16.6366 17.604 16.1945C17.953 15.7282 18.2433 15.2191 18.4672 14.6786C18.8189 13.8293 19 12.9191 19 11.9998C19 11.0806 18.8189 10.1703 18.4672 9.32106C18.4532 9.28728 18.4389 9.25362 18.4244 9.22009C18.2068 8.7171 17.9312 8.24236 17.604 7.80523Z" fill="white"/>
<path d="M19.0533 4.9467C19.4536 4.5464 20.1068 4.54359 20.4681 4.97941C20.5557 5.0851 20.6413 5.19238 20.7249 5.30119C21.3097 6.06288 21.7935 6.89953 22.1626 7.79054C22.2317 7.95736 22.2966 8.12568 22.3573 8.29534C22.7821 9.48294 22.9999 10.7361 22.9999 12C22.9999 13.4446 22.7154 14.875 22.1626 16.2096C21.7408 17.2279 21.1691 18.1751 20.4681 19.0207C20.1068 19.4565 19.4536 19.4537 19.0533 19.0534C18.653 18.6531 18.6583 18.0073 19.0102 17.5639C19.5259 16.9141 19.9498 16.1945 20.2686 15.425C20.7183 14.3392 20.9498 13.1754 20.9498 12C20.9498 10.8247 20.7183 9.66092 20.2685 8.57507C19.9498 7.80561 19.5259 7.08598 19.0102 6.43621C18.9662 6.38078 18.9277 6.32219 18.8946 6.26131C18.6633 5.83517 18.703 5.29696 19.0533 4.9467Z" fill="white"/>
</svg>
