<svg width="22" height="16" viewBox="0 0 22 16" fill="none" xmlns="http://www.w3.org/2000/svg">
<path d="M5.25349 12.2313C9.72303 13.9756 13.5266 14.3153 17.8369 11.6003C17.8053 11.6477 16.9527 12.9108 14.7105 13.5582C15.1842 14.2056 15.8316 14.9476 15.8316 14.9476C17.2684 14.9476 18.6737 14.5371 19.8895 13.7476C20.8369 13.1161 21.3737 12.0266 21.2631 10.8898C21.0737 8.94765 20.6157 7.05291 19.9053 5.23716C19.0053 2.86876 16.8421 1.22663 14.3316 0.989774C14.1105 0.973977 13.9527 0.973977 13.8579 0.973977L13.6053 1.22659C16.4948 2.04765 17.9316 3.32659 17.9632 3.37398C13.5263 1.13185 8.28424 1.1003 3.81579 3.27924C3.81579 3.27924 5.23685 1.87398 8.37893 1.13185L8.18946 0.942383C7.85787 0.942383 7.54207 0.973976 7.21053 1.02132C4.88946 1.41605 2.94739 3.01079 2.11053 5.20552C1.3842 7.10026 0.910526 9.08973 0.736854 11.1108C0.64212 12.1845 1.14739 13.2424 2.03159 13.8582C3.2 14.6319 4.58946 15.0424 5.99473 15.0424C5.99473 15.0424 6.56313 14.3003 7.13159 13.6371C4.99999 13.0055 4.13159 11.7424 4.11579 11.695L4.51695 11.8998C4.75676 12.0224 5.00262 12.1334 5.25349 12.2313ZM7.73159 10.8582C6.70526 10.8266 5.89999 9.95818 5.93159 8.91606C5.96318 7.93712 6.75265 7.14765 7.73159 7.11605C8.75792 7.14765 9.56318 8.01605 9.53159 9.05818C9.4842 10.0372 8.71053 10.8266 7.73159 10.8582ZM14.1737 10.8582C13.1473 10.8266 12.3421 9.95818 12.3737 8.91606C12.4053 7.93712 13.1947 7.14765 14.1737 7.11605C15.2 7.14765 16.0053 8.01605 15.9737 9.05818C15.9421 10.0372 15.1526 10.8266 14.1737 10.8582Z" fill="url(#paint0_radial_14_1905)"/>
<defs>
<radialGradient id="paint0_radial_14_1905" cx="0" cy="0" r="1" gradientUnits="userSpaceOnUse" gradientTransform="translate(15.7045 0.942386) rotate(132.941) scale(19.557 100.839)">
<stop stop-color="#8320F7"/>
<stop offset="0.536981" stop-color="#D920F7"/>
<stop offset="1" stop-color="#8320F7"/>
</radialGradient>
</defs>
</svg>
