<svg width="24" height="20" viewBox="0 0 24 20" fill="none" xmlns="http://www.w3.org/2000/svg">
<path d="M21.543 5.10434C21.557 5.31534 21.557 5.52734 21.557 5.74034C21.557 12.2473 16.603 19.7503 7.547 19.7503V19.7463C4.872 19.7503 2.252 18.9843 0 17.5393C0.389 17.5863 0.78 17.6093 1.172 17.6103C3.39 17.6123 5.544 16.8683 7.287 15.4983C5.18 15.4583 3.332 14.0843 2.687 12.0783C3.425 12.2203 4.185 12.1913 4.91 11.9943C2.612 11.5303 0.96 9.51134 0.96 7.16734C0.96 7.14634 0.96 7.12534 0.96 7.10534C1.645 7.48734 2.411 7.69834 3.195 7.72134C1.031 6.27634 0.363 3.39834 1.67 1.14834C4.17 4.22434 7.859 6.09434 11.818 6.29334C11.421 4.58334 11.964 2.79134 13.242 1.58834C15.225 -0.276659 18.344 -0.180659 20.209 1.80234C21.312 1.58534 22.369 1.18034 23.336 0.607341C22.968 1.74734 22.199 2.71534 21.171 3.33134C22.148 3.21434 23.101 2.95334 24 2.55534C23.339 3.54434 22.507 4.40734 21.543 5.10434Z" fill="url(#paint0_radial_14_1869)"/>
<defs>
<radialGradient id="paint0_radial_14_1869" cx="0" cy="0" r="1" gradientUnits="userSpaceOnUse" gradientTransform="translate(17.4921 0.250004) rotate(128.159) scale(25.1816 126.482)">
<stop stop-color="#8320F7"/>
<stop offset="0.536981" stop-color="#D920F7"/>
<stop offset="1" stop-color="#8320F7"/>
</radialGradient>
</defs>
</svg>
