<?xml version="1.0" encoding="utf-8"?><svg viewBox="0 0 24 20" xmlns="http://www.w3.org/2000/svg" xmlns:xlink="http://www.w3.org/1999/xlink"><style>:root>svg{display:none}:root>svg:target{display:block}</style><svg viewBox="0 0 22 16" id="discord" xmlns="http://www.w3.org/2000/svg"><path d="M5.253 12.231c4.47 1.745 8.274 2.084 12.584-.63-.032.047-.884 1.31-3.127 1.957.474.648 1.122 1.39 1.122 1.39 1.436 0 2.842-.41 4.058-1.2a3.078 3.078 0 001.373-2.858 21.114 21.114 0 00-1.358-5.653A6.628 6.628 0 0014.332.99c-.222-.016-.38-.016-.474-.016l-.253.253c2.89.82 4.327 2.1 4.358 2.147a15.92 15.92 0 00-14.147-.095s1.42-1.405 4.563-2.147l-.19-.19c-.331 0-.647.032-.978.08a6.655 6.655 0 00-5.1 4.184A21.72 21.72 0 00.737 11.11a3.048 3.048 0 001.295 2.747 7.2 7.2 0 003.963 1.184s.568-.742 1.137-1.405c-2.132-.632-3-1.895-3.016-1.942l.4.205c.24.122.487.233.737.331zm2.479-1.373c-1.027-.031-1.832-.9-1.8-1.942a1.863 1.863 0 011.8-1.8c1.026.032 1.831.9 1.8 1.942-.048.98-.821 1.769-1.8 1.8zm6.442 0c-1.027-.031-1.832-.9-1.8-1.942a1.863 1.863 0 011.8-1.8c1.026.032 1.831.9 1.8 1.942a1.863 1.863 0 01-1.8 1.8z"/><defs><radialGradient id="aa" cx="0" cy="0" r="1" gradientUnits="userSpaceOnUse" gradientTransform="matrix(-13.3231 14.31681 -73.81975 -68.69605 15.704 .942)"><stop stop-color="#8320F7"/><stop offset=".537" stop-color="#D920F7"/><stop offset="1" stop-color="#8320F7"/></radialGradient></defs></svg><svg viewBox="0 0 24 20" id="tg" xmlns="http://www.w3.org/2000/svg"><path d="M9.417 13.181l-.397 5.584c.568 0 .814-.244 1.109-.537l2.663-2.545 5.518 4.041c1.012.564 1.725.267 1.998-.93L23.93 1.82h.001C24.252.323 23.39-.262 22.404.105L1.114 8.257C-.339 8.821-.317 9.631.867 9.998l5.443 1.693 12.643-7.91c.595-.395 1.136-.177.691.217L9.417 13.181z"/><defs><radialGradient id="ba" cx="0" cy="0" r="1" gradientUnits="userSpaceOnUse" gradientTransform="rotate(127.456 8.746 4.317) scale(25.5823 127.689)"><stop stop-color="#8320F7"/><stop offset=".537" stop-color="#D920F7"/><stop offset="1" stop-color="#8320F7"/></radialGradient></defs></svg><svg viewBox="0 0 24 20" id="twitter" xmlns="http://www.w3.org/2000/svg"><path d="M21.543 5.104c.014.211.014.423.014.636 0 6.507-4.954 14.01-14.01 14.01v-.004A13.936 13.936 0 010 17.54a9.881 9.881 0 007.287-2.041 4.93 4.93 0 01-4.6-3.42 4.926 4.926 0 002.223-.084A4.924 4.924 0 01.96 7.167v-.062a4.88 4.88 0 002.235.616A4.927 4.927 0 011.67 1.148a13.982 13.982 0 0010.148 5.145 4.929 4.929 0 018.391-4.491A9.873 9.873 0 0023.336.607a4.947 4.947 0 01-2.165 2.724A9.89 9.89 0 0024 2.555a10.008 10.008 0 01-2.457 2.55z"/><defs><radialGradient id="ca" cx="0" cy="0" r="1" gradientUnits="userSpaceOnUse" gradientTransform="rotate(128.159 8.685 4.376) scale(25.1816 126.482)"><stop stop-color="#8320F7"/><stop offset=".537" stop-color="#D920F7"/><stop offset="1" stop-color="#8320F7"/></radialGradient></defs></svg></svg>